<svg width="29" height="40" viewBox="0 0 29 40" fill="none" xmlns="http://www.w3.org/2000/svg">
<path d="M14.5 32.9258C21.2969 32.9258 26.875 27.3359 26.875 20.5391C26.875 13.7539 21.2852 8.16406 14.5 8.16406C7.70312 8.16406 2.125 13.7539 2.125 20.5391C2.125 27.3359 7.71484 32.9258 14.5 32.9258ZM8.93359 22.332C8.30078 22.332 7.80859 21.8281 7.80859 21.1953C7.80859 20.5625 8.30078 20.0703 8.93359 20.0703H13.3633V13.9062C13.3633 13.2734 13.8672 12.7812 14.5 12.7812C15.1328 12.7812 15.625 13.2734 15.625 13.9062V21.1953C15.625 21.8281 15.1328 22.332 14.5 22.332H8.93359Z" fill="#E5E5EA"/>
</svg>
